<svg xmlns="http://www.w3.org/2000/svg" width="426" height="922" viewBox="0 0 426 922">
  <g fill="none" stroke="#7f725f" stroke-opacity=".12" stroke-width="1">
    <path d="M0 18.5H426M0 24.5H426M0 30.5H426M0 36.5H426M0 42.5H426M0 48.5H426"/>
    <path d="M0 72.5H426M0 78.5H426M0 84.5H426M0 90.5H426M0 96.5H426M0 102.5H426"/>
    <path d="M0 126.5H426M0 132.5H426M0 138.5H426M0 144.5H426M0 150.5H426M0 156.5H426"/>
    <path d="M0 180.5H426M0 186.5H426M0 192.5H426M0 198.5H426M0 204.5H426M0 210.5H426"/>
    <path d="M0 234.5H426M0 240.5H426M0 246.5H426M0 252.5H426M0 258.5H426M0 264.5H426"/>
    <path d="M0 288.5H426M0 294.5H426M0 300.5H426M0 306.5H426M0 312.5H426M0 318.5H426"/>
    <path d="M0 342.5H426M0 348.5H426M0 354.5H426M0 360.5H426M0 366.5H426M0 372.5H426"/>
    <path d="M0 396.5H426M0 402.5H426M0 408.5H426M0 414.5H426M0 420.5H426M0 426.5H426"/>
    <path d="M0 450.5H426M0 456.5H426M0 462.5H426M0 468.5H426M0 474.5H426M0 480.5H426"/>
    <path d="M0 504.5H426M0 510.5H426M0 516.5H426M0 522.5H426M0 528.5H426M0 534.5H426"/>
    <path d="M0 558.5H426M0 564.5H426M0 570.5H426M0 576.5H426M0 582.5H426M0 588.5H426"/>
    <path d="M0 612.5H426M0 618.5H426M0 624.5H426M0 630.5H426M0 636.5H426M0 642.5H426"/>
    <path d="M0 666.5H426M0 672.5H426M0 678.5H426M0 684.5H426M0 690.5H426M0 696.5H426"/>
    <path d="M0 720.5H426M0 726.5H426M0 732.5H426M0 738.5H426M0 744.5H426M0 750.5H426"/>
    <path d="M0 774.5H426M0 780.5H426M0 786.5H426M0 792.5H426M0 798.5H426M0 804.5H426"/>
    <path d="M0 828.5H426M0 834.5H426M0 840.5H426M0 846.5H426M0 852.5H426M0 858.5H426"/>
  </g>
</svg>
